<?xml version="1.0" encoding="UTF-8"?>
<svg version="1.1" xmlns="http://www.w3.org/2000/svg" width="400" height="400">
<path d="M0 0 C13.26815706 12.90204767 23.95844382 28.01046032 32.46875 44.42822266 C32.97100098 45.39381104 32.97100098 45.39381104 33.48339844 46.37890625 C45.56106851 69.95020882 52.52929915 97.07900459 52.671875 123.60791016 C52.67757507 124.46015167 52.68327515 125.31239319 52.68914795 126.19046021 C52.69853485 127.98714992 52.70510658 129.78385636 52.70898438 131.58056641 C52.71860172 134.2618825 52.74964916 136.94240106 52.78125 139.62353516 C52.87794926 155.24977579 51.03381059 170.36137075 46.78125 185.42822266 C46.52633789 186.34063721 46.27142578 187.25305176 46.00878906 188.19311523 C37.91499489 216.08866211 23.02341731 241.26946618 3.81445312 262.91064453 C2.47400128 264.42230067 1.15116981 265.94820594 -0.171875 267.47509766 C-30.4291564 301.91671935 -75.26276508 322.12440358 -120.53125 326.42822266 C-123.41323332 326.57553941 -126.29034458 326.61504477 -129.17578125 326.63134766 C-129.98504562 326.63704773 -130.79431 326.6427478 -131.62809753 326.64862061 C-133.33660602 326.6580154 -135.04513218 326.66458245 -136.75366211 326.66845703 C-139.29901203 326.67805398 -141.84351449 326.7090843 -144.38867188 326.74072266 C-159.51285535 326.83914825 -174.36922055 325.1316986 -188.90625 320.80322266 C-190.19450684 320.42472168 -190.19450684 320.42472168 -191.50878906 320.03857422 C-225.73798297 309.5744695 -260.0473802 287.55849415 -282.53125 259.42822266 C-283.28664063 258.49880859 -284.04203125 257.56939453 -284.8203125 256.61181641 C-315.44036612 218.30519781 -332.65535929 166.30988347 -327.46875 117.24072266 C-323.39373123 83.24790381 -313.37141548 51.53453348 -293.53125 23.42822266 C-293.12245605 22.84298828 -292.71366211 22.25775391 -292.29248047 21.65478516 C-279.74690984 3.96975827 -263.28146613 -11.24247541 -245.53125 -23.57177734 C-244.9527832 -23.97895996 -244.37431641 -24.38614258 -243.77832031 -24.80566406 C-239.79682615 -27.58018809 -235.7208017 -30.12941473 -231.53125 -32.57177734 C-230.78456055 -33.00731934 -230.03787109 -33.44286133 -229.26855469 -33.89160156 C-153.79330137 -77.17397786 -61.13059249 -58.48398806 0 0 Z " fill="#06606E" transform="translate(337.53125,64.57177734375)"/>
<path d="M0 0 C0.96534668 0.29551758 1.93069336 0.59103516 2.92529297 0.89550781 C27.30143049 8.57644128 48.4027714 20.08301162 67.875 36.5 C68.48915771 37.0168335 69.10331543 37.53366699 69.73608398 38.06616211 C71.19858571 39.33133046 72.60532386 40.66043264 74 42 C74 42.66 74 43.32 74 44 C73.439542 44.00754209 72.879084 44.01508417 72.30164242 44.0228548 C58.64616629 44.20761352 44.99101076 44.40857578 31.3360281 44.62686634 C24.73248372 44.73194389 18.12894891 44.83168062 11.52514648 44.91918945 C5.15124483 45.00384872 -1.22229864 45.10256625 -7.59583855 45.21100426 C-10.02659567 45.24989498 -12.4574391 45.28373308 -14.88833809 45.31241798 C-18.29514753 45.35348476 -21.70120647 45.41256381 -25.10766602 45.47583008 C-26.11108032 45.48374573 -27.11449463 45.49166138 -28.14831543 45.49981689 C-33.82712978 45.62704831 -38.01162393 46.19639268 -43 49 C-46.4100895 54.11513424 -46.15528009 59.66631401 -46.20532227 65.65771484 C-46.21522186 66.39986237 -46.22512146 67.14200989 -46.23532104 67.90664673 C-46.26671917 70.3413787 -46.29160697 72.77613014 -46.31640625 75.2109375 C-46.33699455 76.9063058 -46.3579915 78.60166918 -46.37937927 80.29702759 C-46.43440631 84.74554446 -46.4839005 89.19410616 -46.53222656 93.6427002 C-46.58258355 98.18762166 -46.6381953 102.73247854 -46.69335938 107.27734375 C-46.80070383 116.18484057 -46.90220084 125.09239362 -47 134 C-46.21477966 134.30325195 -45.42955933 134.60650391 -44.62054443 134.91894531 C-42.10121985 135.95824372 -40.37554069 137.05202567 -38.265625 138.75 C-37.60949219 139.2759375 -36.95335937 139.801875 -36.27734375 140.34375 C-35.60832031 140.8903125 -34.93929687 141.436875 -34.25 142 C-33.56550781 142.5465625 -32.88101563 143.093125 -32.17578125 143.65625 C-27.13600498 147.72799003 -27.13600498 147.72799003 -26 150 C-25.01 150.33 -24.02 150.66 -23 151 C-23.33 150.34 -23.66 149.68 -24 149 C-24.09284346 146.52810918 -24.12583159 144.08468489 -24.11352539 141.61279297 C-24.11367142 140.85172241 -24.11381744 140.09065186 -24.1139679 139.30651855 C-24.11326993 136.78504611 -24.10548294 134.26364708 -24.09765625 131.7421875 C-24.09579166 129.99626709 -24.09436795 128.25034616 -24.09336853 126.50442505 C-24.08954659 121.90454672 -24.07971905 117.30469986 -24.06866455 112.70483398 C-24.05844349 108.0128624 -24.05386942 103.32088575 -24.04882812 98.62890625 C-24.03809651 89.41925699 -24.02102394 80.20963111 -24 71 C-8.51029466 70.64898154 6.97911201 70.38479317 22.47186184 70.22281742 C29.66643452 70.14559278 36.85853113 70.0404091 44.05151367 69.8684082 C50.32410911 69.71848792 56.59491172 69.62203759 62.86924893 69.58867258 C66.19035663 69.56917259 69.50516562 69.5157344 72.82491875 69.41404915 C93.04358895 68.81947848 93.04358895 68.81947848 97.98176193 72.46166229 C101.57408739 76.48174483 103.29887102 80.94506956 105 86 C105.79966725 87.70907879 106.61220663 89.41239871 107.453125 91.1015625 C108.06984257 92.60219872 108.66904197 94.11016094 109.25 95.625 C109.73557373 96.86769653 109.73557373 96.86769653 110.23095703 98.13549805 C113.76869454 107.5315667 116.06583118 117.16366551 118 127 C118.24621094 128.20011719 118.49242187 129.40023437 118.74609375 130.63671875 C123.67129993 159.88225337 121.01453852 197.47819222 104 223 C103.34 223 102.68 223 102 223 C101.68289063 221.99324219 101.36578125 220.98648438 101.0390625 219.94921875 C95.66805865 203.52387058 88.14134693 188.2945505 77 175 C75.94039063 173.71416016 75.94039063 173.71416016 74.859375 172.40234375 C59.31466521 154.31344585 38.69875706 143.45958269 16 137 C16.66644531 137.40089844 17.33289063 137.80179688 18.01953125 138.21484375 C25.1674207 142.623542 31.67000005 147.48357371 38 153 C38.95519531 153.82757813 38.95519531 153.82757813 39.9296875 154.671875 C52.66036944 166.52255588 62.01630409 184.5538637 63 202 C63.06445312 203.05574219 63.12890625 204.11148438 63.1953125 205.19921875 C64.00064094 230.45968753 53.69530287 251.58117395 37.1015625 270.12109375 C20.9778423 287.02718856 -1.95157438 299.77569048 -25 304 C-26.99954746 304.04254356 -29.00068018 304.05215617 -31 304 C-30.5875 303.3915625 -30.175 302.783125 -29.75 302.15625 C-16.42960239 281.93778934 -7.52244436 259.54238685 -7.75 235.0625 C-7.76015137 233.47610718 -7.76015137 233.47610718 -7.77050781 231.85766602 C-7.86526991 224.721309 -8.28954745 217.94994226 -10 211 C-10.24492187 209.85144531 -10.48984375 208.70289063 -10.7421875 207.51953125 C-16.82952255 181.52714928 -34.17898192 156.78784965 -56.8203125 142.52734375 C-73.10168685 132.75972353 -90.9640899 126.90142193 -110 126 C-111.00804688 125.93554688 -112.01609375 125.87109375 -113.0546875 125.8046875 C-139.51293928 124.87086685 -165.58471053 135.21652732 -185 153 C-186.19834407 154.17655599 -187.38774488 155.36239046 -188.5625 156.5625 C-189.7690625 157.7690625 -189.7690625 157.7690625 -191 159 C-191.66 159 -192.32 159 -193 159 C-193.2475 159.598125 -193.495 160.19625 -193.75 160.8125 C-195.16846907 163.29482087 -196.69264738 164.36328035 -199 166 C-199.61701803 135.97811749 -199.61701803 135.97811749 -196 122 C-195.62011765 120.42471423 -195.24126969 118.84917878 -194.86328125 117.2734375 C-187.62979939 87.84565787 -173.56837701 64.15055986 -153 42 C-152.46117187 41.40703125 -151.92234375 40.8140625 -151.3671875 40.203125 C-133.80631466 21.67155065 -109.21802211 8.38686857 -85 1 C-84.31663574 0.77151367 -83.63327148 0.54302734 -82.92919922 0.30761719 C-58.41282421 -7.68250459 -24.64149009 -7.66796911 0 0 Z " fill="#FDFCFA" transform="translate(239,44)"/>
<path d="M0 0 C14.79273689 4.36075598 31.29337476 18.77607577 39.07421875 31.90625 C38.71104465 35.339896 37.61347412 38.15673233 36.19921875 41.28125 C33.82956094 46.98566262 32.77927996 52.73071523 31.6875 58.78125 C31.07421875 61.90625 31.07421875 61.90625 30.07421875 63.90625 C27.46972656 64.86767578 27.46972656 64.86767578 24.02734375 65.8515625 C22.78984375 66.20605469 21.55234375 66.56054688 20.27734375 66.92578125 C19.62830078 67.10705566 18.97925781 67.28833008 18.31054688 67.47509766 C16.34309371 68.0259652 14.38049829 68.59202961 12.41796875 69.16015625 C1.37300675 72.28803449 1.37300675 72.28803449 -2.92578125 71.90625 C-4.55859375 70.47265625 -4.55859375 70.47265625 -6.05078125 68.46875 C-12.61555229 60.44040446 -20.61205187 54.68945478 -29.80859375 50 C-31.92578125 48.90625 -31.92578125 48.90625 -32.92578125 47.90625 C-34.00578954 37.48881902 -34.35785517 25.90129778 -30.92578125 15.90625 C-25.69658254 9.61348545 -18.14383912 6.59539347 -10.57299805 3.93237305 C-7.84441357 2.96596167 -7.84441357 2.96596167 -5.26806641 1.2746582 C-2.92578125 -0.09375 -2.92578125 -0.09375 0 0 Z " fill="#FCFBF9" transform="translate(159.92578125,195.09375)"/>
<path d="M0 0 C1.94036758 1.21086746 3.80210027 2.49372658 5.66064453 3.82666016 C6.29035156 4.26171875 6.92005859 4.69677734 7.56884766 5.14501953 C8.83467903 6.02316566 10.09055681 6.91583791 11.3359375 7.82275391 C13.20778395 9.1732907 13.20778395 9.1732907 15.25488281 10.28369141 C17.20800285 11.43934885 18.71625363 12.43933274 20.22314453 14.13916016 C20.95517736 17.09882168 20.62120343 19.76622052 20.22314453 22.76416016 C20.14499512 23.56233154 20.0668457 24.36050293 19.98632812 25.18286133 C19.82818238 26.77478663 19.65579065 28.36536963 19.46826172 29.95410156 C19.15112879 32.78113318 19.01084678 35.61211852 18.84814453 38.45166016 C18.60413552 42.43928118 17.63717928 44.92218513 15.22314453 48.13916016 C12.65673828 49.84228516 12.65673828 49.84228516 9.66064453 51.38916016 C2.19623839 55.52801974 -3.92323189 60.78752221 -9.46435547 67.26416016 C-11.77685547 69.13916016 -11.77685547 69.13916016 -14.67529297 69.04150391 C-20.27013217 68.06227954 -25.47694523 65.69958312 -30.71435547 63.57666016 C-31.77976562 63.15191406 -32.84517578 62.72716797 -33.94287109 62.28955078 C-36.55701972 61.24623586 -39.16813498 60.19595782 -41.77685547 59.13916016 C-42.4139231 54.88998091 -42.98155361 50.63815134 -43.49365234 46.37255859 C-43.68210766 44.88636099 -43.88910592 43.4023949 -44.11474609 41.92138672 C-45.99502736 29.46864675 -45.99502736 29.46864675 -43.21826172 24.15869141 C-40.91112245 21.50609813 -38.50929739 19.34870312 -35.77685547 17.13916016 C-34.93251953 16.37345703 -34.08818359 15.60775391 -33.21826172 14.81884766 C-26.06037649 8.54373282 -10.19003301 -4.93680357 0 0 Z " fill="#FCFBF9" transform="translate(97.77685546875,195.86083984375)"/>
<path d="M0 0 C2.08999735 2.08999735 3.63730029 3.92678667 5.3125 6.3125 C6.25986951 7.60292217 7.20911582 8.89196841 8.16015625 10.1796875 C8.6308252 10.82518555 9.10149414 11.47068359 9.58642578 12.13574219 C10.90692974 13.87725656 12.28500039 15.50867188 13.74609375 17.1328125 C14.57238281 18.05835938 15.39867187 18.98390625 16.25 19.9375 C16.99765625 20.75089844 17.7453125 21.56429688 18.515625 22.40234375 C20.93842901 26.64225077 19.44486986 30.10860362 18.37890625 34.640625 C15.07442064 45.20233022 9.65930676 58.77003081 2 67 C-0.23657227 67.5300293 -0.23657227 67.5300293 -2.81640625 67.57421875 C-3.74517578 67.60193359 -4.67394531 67.62964844 -5.63085938 67.65820312 C-6.59830078 67.66787109 -7.56574219 67.67753906 -8.5625 67.6875 C-10.48055029 67.7295011 -12.39853002 67.77490574 -14.31640625 67.82421875 C-15.16662354 67.83541748 -16.01684082 67.84661621 -16.89282227 67.8581543 C-19.05700608 67.86761515 -19.05700608 67.86761515 -21 69 C-23.78125 69.46484375 -23.78125 69.46484375 -27 69 C-29.15833559 66.86894674 -30.76556961 64.99871048 -32.5 62.5625 C-32.9734082 61.92304443 -33.44681641 61.28358887 -33.93457031 60.62475586 C-34.8748813 59.34624872 -35.806428 58.06124316 -36.72851562 56.76953125 C-37.8129765 55.26028155 -38.94128508 53.78269899 -40.078125 52.3125 C-42.57634262 48.95041273 -43.94783616 46.92156112 -44.1875 42.6875 C-42.84474307 38.51788636 -41.2196291 34.55339555 -39.4609375 30.54296875 C-38.36431286 27.8835074 -37.38731935 25.27319012 -36.4765625 22.55078125 C-36.22028076 21.78749512 -35.96399902 21.02420898 -35.69995117 20.23779297 C-35.19972837 18.72863534 -34.70992752 17.2159748 -34.23168945 15.69970703 C-32.82429325 11.48386024 -31.74799919 9.34977546 -28 7 C-24.45553007 5.53484085 -20.78480331 4.45529386 -17.125 3.3125 C-16.14402344 2.99216797 -15.16304687 2.67183594 -14.15234375 2.34179688 C-3.92373338 -0.89519251 -3.92373338 -0.89519251 0 0 Z " fill="#FCFBF9" transform="translate(193,270)"/>
<path d="M0 0 C3.39987991 0.61414926 6.46568711 0.75059558 9.9140625 0.5546875 C22.36597789 -0.03708203 22.36597789 -0.03708203 26.86816406 3.21044922 C30.64452966 6.91962317 33.60808678 11.13128406 36.42089844 15.59814453 C38.35269316 18.54991064 40.5642306 21.2575766 42.79931641 23.98413086 C43.13495605 24.56042236 43.4705957 25.13671387 43.81640625 25.73046875 C42.73062871 28.98780136 41.94682824 29.73066011 39.37890625 31.85546875 C38.76144531 32.37367188 38.14398438 32.891875 37.5078125 33.42578125 C33.95652856 36.16510882 30.8667851 36.37041374 26.4609375 36.32421875 C9.73048194 33.59857111 -7.72338964 21.87256076 -20.18359375 10.73046875 C-19.17868058 6.43480291 -17.75772504 3.53418077 -14.7578125 0.2421875 C-10.06136759 -2.51581581 -5.09348685 -0.95136343 0 0 Z " fill="#F9FAF8" transform="translate(113.18359375,319.26953125)"/>
<path d="M0 0 C7.06550736 0.52072381 13.2244589 3.18801598 19.75 5.8125 C20.88566406 6.25142578 22.02132812 6.69035156 23.19140625 7.14257812 C24.27808594 7.57634766 25.36476563 8.01011719 26.484375 8.45703125 C27.47147461 8.84866455 28.45857422 9.24029785 29.47558594 9.64379883 C32.23781291 11.12776119 33.4258044 12.31260505 35 15 C35.61205089 17.56721344 36.10027192 20.02707076 36.5 22.625 C37.30535401 27.38920261 38.17411654 32.00471092 39.625 36.625 C39.8621875 37.3984375 40.099375 38.171875 40.34375 38.96875 C40.90278684 40.69910211 41.50906674 42.41407427 42.125 44.125 C41.91524642 48.94933237 38.31941211 51.73853274 35 55 C18.76502098 47.7049874 6.86999313 22.90580502 0.55859375 7.11328125 C-0.08575063 4.67558679 -0.10112847 2.51062431 0 0 Z " fill="#FAFAF9" transform="translate(49,265)"/>
</svg>
